<?xml version="1.0" standalone="no"?>
<!DOCTYPE svg PUBLIC "-//W3C//DTD SVG 20010904//EN"
 "http://www.w3.org/TR/2001/REC-SVG-20010904/DTD/svg10.dtd">
<svg version="1.0" xmlns="http://www.w3.org/2000/svg"
 width="231.000000pt" height="231.000000pt" viewBox="0 0 231.000000 231.000000"
 preserveAspectRatio="xMidYMid meet">
<metadata>
Created by potrace 1.11, written by Peter Selinger 2001-2013
</metadata>
<g transform="translate(0.000000,231.000000) scale(0.100000,-0.100000)"
fill="#000000" stroke="none">
<path d="M84 2193 c-12 -2 -34 -18 -50 -34 l-29 -30 -2 -957 c-2 -753 0 -962
10 -982 21 -41 75 -71 124 -68 24 2 43 6 43 9 0 4 7 10 16 13 14 6 15 4 4 -9
-11 -13 -11 -16 1 -13 22 5 29 21 16 38 -11 13 -10 13 7 0 18 -14 19 -13 12 5
-6 16 -5 18 5 8 10 -10 10 -16 1 -25 -21 -21 -13 -25 46 -21 75 4 82 5 76 14
-11 18 18 18 54 -1 37 -20 137 -26 125 -7 -2 4 3 7 11 7 9 0 16 -5 16 -12 0
-6 3 -8 6 -5 4 4 1 14 -7 24 -8 9 -9 14 -2 10 6 -4 14 -1 17 5 4 9 5 8 5 -2
-3 -35 2 -38 64 -36 57 1 63 3 61 21 -1 11 -3 24 -3 29 -1 5 -4 6 -8 3 -3 -4
-12 -2 -20 4 -18 16 -16 -1 3 -22 10 -11 12 -19 5 -24 -6 -3 -11 -1 -11 5 0 7
-10 26 -22 43 -13 19 -16 27 -6 19 13 -10 17 -10 22 3 6 17 26 21 26 4 0 -5
-4 -7 -10 -4 -5 3 -10 2 -10 -4 0 -18 19 -22 28 -5 6 11 11 13 16 5 4 -6 2
-11 -4 -11 -7 0 -6 -5 2 -14 7 -8 16 -12 21 -9 4 2 7 0 7 -6 0 -23 48 -35 143
-36 73 0 96 2 93 12 -3 8 1 10 12 6 9 -3 14 -2 9 2 -4 5 0 17 9 27 14 14 14
20 4 33 -8 10 -9 15 -1 15 6 0 11 -5 11 -11 0 -6 9 -9 20 -6 22 6 64 -38 53
-56 -3 -6 -1 -7 6 -3 6 4 19 2 28 -6 17 -14 185 -20 176 -5 -2 4 -9 5 -14 2
-5 -4 -4 5 3 19 11 26 28 35 28 16 0 -5 -4 -10 -10 -10 -5 0 -10 -4 -10 -10 0
-14 12 -12 35 6 17 13 18 16 5 25 -13 9 -12 10 2 6 22 -8 29 15 9 30 -15 12
-15 14 0 25 9 7 14 20 12 28 -4 13 -3 13 6 0 8 -11 6 -18 -7 -28 -16 -12 -16
-14 0 -23 16 -9 17 -13 3 -38 -8 -16 -21 -31 -30 -34 -19 -8 -20 -24 0 -24 8
0 12 4 9 9 -3 4 -1 8 5 8 5 0 23 21 40 46 27 40 29 45 11 39 -13 -4 -20 -2
-20 6 0 7 3 9 6 6 4 -3 15 -2 25 3 15 9 17 7 14 -11 -5 -27 30 -74 70 -93 33
-16 128 -19 119 -4 -3 4 1 8 10 8 8 0 17 6 19 13 4 9 8 9 15 -2 6 -8 17 -11
27 -7 14 5 15 9 5 21 -7 9 -8 15 -2 15 14 0 23 -28 12 -35 -6 -4 -10 -10 -10
-15 0 -9 26 -7 36 3 12 12 26 8 18 -5 -6 -10 -4 -10 8 0 13 10 17 10 21 0 4
-10 6 -10 6 0 1 6 1 15 2 20 0 4 10 12 22 19 12 7 16 12 10 13 -7 0 -13 8 -13
17 0 14 -3 14 -12 5 -10 -10 -10 -15 2 -23 12 -9 12 -10 -3 -5 -12 4 -16 2
-11 -6 5 -7 3 -8 -6 -3 -8 5 -11 4 -6 -3 4 -7 -1 -10 -14 -7 -11 2 -20 -1 -20
-7 0 -6 -3 -9 -6 -5 -3 3 -1 14 5 24 6 11 11 13 11 5 0 -7 5 -10 12 -6 7 5 5
11 -7 21 -11 7 -14 13 -9 13 6 0 15 -5 22 -12 9 -9 12 -9 12 0 0 6 -8 16 -17
21 -17 10 -17 10 0 11 9 0 17 -5 17 -11 0 -5 5 -7 10 -4 14 9 -4 31 -30 38
-15 4 -20 0 -21 -16 0 -12 -3 -16 -6 -9 -9 22 5 41 25 35 11 -3 34 -19 51 -35
17 -17 29 -23 25 -14 -5 13 -2 15 12 10 17 -6 17 -5 -1 9 -25 20 -7 22 21 3
17 -12 21 -13 21 -1 0 8 -3 14 -6 13 -20 -2 -31 3 -26 12 4 6 11 7 17 4 6 -4
8 -2 4 4 -3 6 4 18 16 26 12 9 17 16 10 16 -6 0 -12 7 -12 16 0 8 -5 12 -10 9
-6 -4 -8 -10 -5 -15 3 -5 0 -12 -7 -17 -19 -11 -39 -13 -32 -2 3 5 0 9 -5 9
-14 0 -14 27 -1 35 5 3 7 0 4 -9 -4 -10 0 -13 13 -11 10 2 20 4 22 4 2 1 -6
10 -19 21 -13 11 -18 20 -13 20 6 0 16 -7 23 -15 14 -17 42 -6 46 19 3 18 -4
20 -26 6 -12 -8 -12 -10 -1 -10 8 0 11 -3 8 -6 -12 -12 -37 18 -33 40 3 21 36
37 36 17 0 -6 -6 -8 -13 -5 -8 3 -13 -4 -14 -17 -2 -19 0 -20 20 -6 12 8 21
23 20 34 -1 10 0 25 4 33 3 8 7 21 9 28 1 8 5 17 8 20 8 7 2 -27 -9 -52 -6
-13 -3 -21 8 -28 9 -5 14 -15 10 -24 -4 -12 -8 -12 -13 -4 -4 7 -7 -1 -6 -19
0 -17 5 -31 9 -31 5 0 7 7 4 15 -4 8 -2 17 3 20 6 4 10 1 10 -4 0 -6 8 -11 18
-11 16 1 16 1 0 11 -10 5 -18 15 -18 20 0 6 6 7 13 2 17 -11 36 -12 42 -3 2 4
-5 7 -17 6 -12 0 -23 4 -25 11 -3 7 5 10 22 9 20 -3 23 -1 14 10 -14 17 2 18
21 2 12 -11 12 -10 1 4 -10 14 -9 18 6 27 11 6 13 11 5 11 -7 0 -11 4 -7 9 3
6 14 8 24 6 14 -3 18 1 14 16 -3 12 0 19 8 19 9 0 6 5 -6 12 -31 19 -44 18
-40 -2 3 -14 -1 -16 -17 -12 -15 3 -19 1 -14 -7 4 -6 11 -9 16 -6 5 3 12 1 15
-5 4 -6 1 -9 -7 -8 -7 2 -12 -2 -11 -9 2 -7 -7 -18 -19 -24 -22 -12 -22 -12
-4 15 17 27 17 28 -2 22 -21 -7 -48 17 -37 34 3 6 10 8 14 6 4 -3 13 5 20 16
11 18 11 20 -4 15 -9 -4 -14 -3 -10 3 3 6 1 10 -4 10 -6 0 -11 5 -11 10 0 6
11 3 25 -6 23 -15 23 -17 9 -40 -9 -13 -21 -21 -26 -18 -6 4 -9 1 -6 -6 7 -22
26 -23 33 -1 4 13 11 18 22 14 10 -4 14 -2 9 5 -3 6 5 22 20 37 21 21 24 29
13 41 -10 12 -9 13 5 8 9 -3 16 -3 16 0 0 4 -12 11 -26 16 -14 6 -23 14 -20
19 4 5 1 12 -4 14 -7 4 -6 5 1 3 6 -1 10 -6 10 -11 0 -18 42 -27 56 -12 12 12
11 16 -3 28 -16 12 -17 12 -11 -3 3 -10 2 -18 -3 -18 -15 0 -12 26 5 40 18 15
20 31 3 28 -7 -2 -13 7 -14 19 -1 12 2 20 7 17 4 -2 5 -12 2 -21 -4 -10 -2
-14 5 -9 16 9 26 -13 12 -29 -7 -8 -7 -15 -1 -19 5 -4 13 3 16 15 6 17 9 18
16 8 4 -7 12 -10 16 -5 4 4 -5 19 -22 33 -22 18 -24 22 -7 13 28 -14 57 4 47
28 -4 12 -3 13 9 3 12 -10 15 -9 13 8 -1 13 -7 20 -17 18 -23 -3 -20 47 3 51
26 5 60 -27 47 -44 -8 -8 -7 -13 2 -16 9 -3 9 -6 0 -12 -7 -4 -12 -2 -12 3 0
6 -5 11 -10 11 -6 0 -3 -12 7 -27 9 -16 13 -25 9 -21 -4 4 -22 -7 -38 -24 -27
-28 -29 -32 -13 -41 20 -11 38 9 30 31 -3 8 3 16 14 19 11 3 20 12 20 21 2 45
5 53 19 47 8 -3 3 10 -12 30 -17 22 -21 32 -11 29 8 -3 15 -3 15 0 0 4 -12 11
-26 16 -14 6 -23 14 -20 19 4 5 1 12 -4 14 -7 4 -6 5 1 3 6 -1 10 -6 9 -11 -3
-15 41 -26 56 -14 10 8 14 8 14 0 0 -6 -4 -11 -10 -11 -5 0 -10 -5 -10 -11 0
-5 4 -8 8 -5 4 2 14 1 20 -3 10 -6 9 -11 -4 -22 -16 -12 -17 -12 -12 2 4 10 1
16 -8 16 -18 0 -18 -11 0 -26 10 -9 16 -8 26 4 7 8 16 12 21 9 5 -3 9 -1 9 4
0 6 -7 12 -15 16 -10 3 -14 14 -11 30 3 20 0 24 -15 23 -10 -1 -19 -5 -19 -9
0 -4 -5 -8 -11 -8 -8 0 -8 5 1 15 7 8 16 13 20 10 4 -2 15 4 25 15 19 21 7 28
-12 9 -15 -15 -47 -3 -37 13 5 8 2 9 -12 4 -14 -5 -16 -4 -7 5 13 13 37 3 28
-12 -9 -14 17 -10 38 5 20 15 23 30 5 21 -7 -4 -1 3 15 15 33 26 35 53 5 69
-22 11 -22 11 -1 6 22 -6 26 7 9 34 -6 10 -5 12 2 7 7 -4 12 -1 12 8 0 8 -6
17 -12 19 -10 4 -10 6 0 6 6 1 12 6 12 12 0 5 -4 7 -10 4 -5 -3 -10 -1 -10 4
0 6 6 11 13 11 8 0 7 4 -3 10 -8 5 -10 10 -4 10 13 0 14 31 1 48 -6 8 -6 12 3
12 10 0 9 4 -1 16 -12 15 -15 14 -31 -6 -10 -12 -18 -17 -18 -12 0 6 5 14 10
17 6 4 8 16 4 28 -6 19 -5 20 10 8 20 -17 21 -5 2 15 -8 8 -13 23 -11 34 2 11
-1 20 -6 20 -6 0 -9 -6 -6 -12 2 -7 0 -21 -5 -32 -6 -11 -6 -16 -1 -13 8 5 9
-17 4 -42 -1 -2 -8 2 -16 9 -8 7 -14 18 -13 25 2 7 -8 22 -22 34 -21 17 -21
20 -5 14 18 -6 18 -5 6 10 -8 10 -11 20 -7 24 3 3 6 0 6 -8 0 -12 2 -11 10 1
8 11 9 8 6 -13 -3 -18 -1 -25 6 -21 7 5 8 2 3 -6 -5 -8 -4 -11 3 -6 12 7 9 34
-7 64 -6 11 -7 23 -3 27 4 5 1 5 -6 1 -17 -10 -42 11 -35 30 3 8 0 14 -7 14
-6 0 -8 5 -4 12 5 7 3 8 -7 2 -8 -5 -17 -9 -21 -9 -3 0 -10 -4 -15 -8 -4 -5
-1 -7 7 -5 9 2 14 -3 12 -11 -2 -11 0 -12 11 -3 10 9 14 9 14 -1 0 -19 -34
-18 -43 1 -4 9 -8 22 -9 27 0 6 -6 9 -12 8 -6 -1 -10 5 -9 15 0 10 -5 16 -14
14 -8 -2 -12 0 -8 4 4 4 -6 24 -23 45 -21 26 -25 37 -14 32 16 -6 16 -4 0 20
-20 31 -30 35 -21 10 5 -16 4 -16 -8 0 -8 11 -12 26 -9 35 4 10 2 13 -5 8 -7
-4 -18 6 -29 28 -9 19 -20 33 -25 30 -4 -3 -5 2 -2 10 4 9 -1 18 -10 22 -9 3
-16 10 -16 16 0 5 4 7 8 4 4 -2 13 4 20 14 9 15 9 22 -3 33 -8 8 -11 18 -7 23
4 5 -1 2 -11 -5 -14 -11 -20 -12 -30 -2 -9 10 -9 12 3 9 9 -2 15 5 16 20 2 26
-8 28 -26 7 -11 -13 -10 -14 4 -9 9 3 16 1 16 -6 0 -6 -4 -9 -9 -5 -16 9 -24
-15 -11 -31 10 -12 16 -12 28 -2 13 11 14 11 7 -1 -5 -9 -4 -12 2 -8 5 3 10 0
10 -8 0 -8 -4 -15 -9 -15 -4 0 -8 5 -8 11 0 5 -4 8 -9 4 -5 -3 -19 7 -30 21
-20 26 -20 27 -2 53 17 23 17 29 5 46 -8 10 -14 14 -14 9 0 -6 5 -15 11 -21 7
-7 7 -13 1 -17 -6 -3 -13 3 -17 14 -6 19 -25 28 -25 12 0 -5 -6 -9 -14 -9 -8
0 -11 8 -8 20 3 14 1 18 -6 13 -7 -4 -12 -2 -12 4 0 7 7 9 16 6 9 -3 18 -6 20
-6 3 0 2 -5 -1 -10 -4 -6 5 -5 19 2 14 6 26 16 26 21 0 5 -7 4 -15 -3 -9 -7
-19 -10 -22 -6 -4 4 -3 10 2 14 6 4 11 14 13 22 2 12 -1 11 -11 -2 -8 -10 -17
-15 -20 -11 -4 3 -2 12 4 20 9 9 8 13 0 13 -6 0 -11 -5 -11 -11 0 -5 -5 -7
-10 -4 -8 5 -7 11 1 21 8 10 8 14 0 14 -6 0 -11 -4 -11 -9 0 -21 -33 -20 -49
1 -9 13 -16 25 -17 28 -4 21 -18 39 -27 33 -6 -4 -8 0 -4 11 4 9 3 15 -2 12
-4 -3 -18 8 -30 24 -48 66 -134 76 -183 22 -30 -33 -64 -87 -49 -78 7 5 10
-11 8 -52 -1 -36 -6 -59 -14 -59 -6 0 -9 7 -5 15 3 10 1 13 -6 8 -6 -3 -13 -2
-17 3 -3 6 4 8 15 6 14 -3 20 0 17 8 -2 7 -11 11 -21 9 -11 -2 -16 4 -16 18 0
12 5 18 10 15 6 -4 8 -11 5 -16 -3 -5 0 -6 8 -3 7 2 14 11 14 18 0 8 -7 12
-15 8 -12 -4 -14 -1 -9 14 7 19 7 19 -8 0 -8 -11 -15 -24 -15 -29 0 -6 -23 20
-51 57 -57 76 -99 101 -154 90 -43 -8 -95 -64 -95 -101 0 -26 -1 -26 -15 -7
-14 18 -14 18 -8 -3 3 -13 9 -23 13 -23 4 0 7 -20 7 -43 -1 -27 -7 -44 -14
-44 -8 0 -9 6 -2 18 12 23 12 32 0 24 -6 -3 -19 5 -31 17 -39 43 -90 110 -90
118 0 5 -20 18 -44 30 -60 28 -104 20 -148 -28 -31 -34 -33 -42 -33 -101 0
-71 -13 -87 -36 -44 -8 16 -24 39 -37 53 -12 14 -25 35 -28 47 -4 13 -10 20
-15 17 -5 -3 -9 1 -9 8 0 17 -77 68 -102 68 -36 0 -95 -31 -112 -60 -11 -19
-18 -54 -19 -94 -1 -61 -11 -75 -34 -52 -4 4 -2 6 6 4 7 -2 16 3 19 11 2 8 0
11 -5 8 -19 -12 -100 82 -85 98 4 5 2 5 -5 1 -7 -4 -19 6 -29 23 -18 30 -72
62 -102 60 -9 -1 -27 -4 -38 -6z m1721 -203 c17 -18 17 -20 2 -14 -9 3 -17 10
-17 16 0 5 -5 6 -12 2 -7 -4 -8 -3 -4 4 9 16 10 15 31 -8z m49 -102 c-3 -4
-11 -8 -17 -8 -7 0 -6 4 3 10 11 7 11 10 2 10 -7 0 -10 5 -6 11 4 8 9 7 15 -2
4 -7 5 -17 3 -21z m356 -480 c0 -5 -3 -7 -7 -7 -21 3 -33 -2 -27 -13 4 -7 3
-8 -4 -4 -6 4 -8 14 -5 23 4 11 3 14 -5 9 -7 -4 -12 -3 -12 3 0 5 6 11 13 14
13 4 47 -13 47 -25z m77 -142 c-3 -7 0 -19 6 -25 8 -8 8 -14 -2 -23 -10 -11
-11 -9 -5 6 5 13 4 17 -3 13 -7 -4 -10 0 -8 10 2 10 4 21 4 26 1 4 4 7 7 7 3
0 4 -6 1 -14z m-17 -216 c0 -5 -2 -10 -4 -10 -3 0 -8 5 -11 10 -3 6 -1 10 4
10 6 0 11 -4 11 -10z m17 -22 c-3 -8 -6 -5 -6 6 -1 11 2 17 5 13 3 -3 4 -12 1
-19z m-24 -19 c-8 -8 -13 -7 -18 2 -5 8 -4 10 3 5 7 -4 12 -2 12 5 0 7 3 9 7
6 4 -4 2 -12 -4 -18z m-13 -30 c0 -6 -4 -7 -10 -4 -5 3 -10 11 -10 16 0 6 5 7
10 4 6 -3 10 -11 10 -16z m-40 -49 c0 -5 -4 -10 -10 -10 -5 0 -10 5 -10 10 0
6 5 10 10 10 6 0 10 -4 10 -10z m-86 -126 c3 -8 2 -12 -4 -9 -6 3 -10 10 -10
16 0 14 7 11 14 -7z m-22 -24 c-2 -8 3 -10 13 -7 8 4 15 2 15 -4 0 -6 -7 -9
-16 -7 -8 2 -14 7 -14 12 1 5 -4 13 -12 18 -10 8 -10 9 2 5 8 -2 14 -10 12
-17z m-60 -86 c-9 -16 -10 -14 -9 8 1 15 6 23 11 18 4 -4 4 -16 -2 -26z m128
17 c0 -6 -4 -13 -10 -16 -5 -3 -10 1 -10 9 0 9 5 16 10 16 6 0 10 -4 10 -9z
m-170 -66 c7 -9 8 -15 2 -15 -5 0 -12 7 -16 15 -3 8 -4 15 -2 15 2 0 9 -7 16
-15z m-15 -36 c-4 -5 -12 -9 -18 -8 -9 0 -8 2 1 6 6 2 9 10 6 15 -4 7 -2 8 5
4 6 -4 9 -12 6 -17z m38 5 c3 -3 3 -12 0 -20 -6 -16 -33 -19 -33 -4 0 6 3 9 8
9 19 -3 25 2 12 11 -8 5 -10 10 -4 10 6 0 13 -3 17 -6z m-97 -76 c-9 -12 -16
-19 -16 -15 0 11 24 47 28 42 2 -2 -3 -14 -12 -27z m117 -28 c-3 -11 -9 -18
-13 -15 -7 4 -7 18 -1 43 1 2 5 1 10 -2 5 -3 7 -15 4 -26z m-139 -20 c-6 -6
-15 -5 -24 1 -12 9 -12 10 4 5 14 -5 17 -3 12 11 -6 15 -5 16 5 6 8 -8 10 -16
3 -23z m-9 -28 c-3 -3 -11 0 -18 7 -9 10 -8 11 6 5 10 -3 15 -9 12 -12z m65 8
c0 -5 -4 -10 -10 -10 -5 0 -10 5 -10 10 0 6 5 10 10 10 6 0 10 -4 10 -10z
m-106 -41 c-3 -5 -10 -7 -15 -3 -5 3 -7 10 -3 15 3 5 10 7 15 3 5 -3 7 -10 3
-15z m119 4 c-5 -13 -35 -11 -40 4 -2 6 7 10 20 9 14 0 23 -6 20 -13z m-143
-53 c-12 -23 -16 -24 -26 -8 -4 7 -3 8 4 4 7 -4 12 -1 12 8 0 9 5 16 10 16 7
0 7 -6 0 -20z m-18 -38 c-7 -2 -10 -8 -7 -13 4 -5 -2 -6 -11 -2 -11 4 -13 8
-6 11 7 2 10 8 7 13 -4 5 2 6 11 2 11 -4 13 -8 6 -11z m-1462 -12 c0 -5 -2
-10 -4 -10 -3 0 -8 5 -11 10 -3 6 -1 10 4 10 6 0 11 -4 11 -10z m1058 -30 c-7
-11 -14 -17 -17 -15 -2 3 1 11 7 18 7 8 8 18 4 22 -4 5 -1 5 5 1 10 -5 10 -11
1 -26z m-720 0 c-7 -10 -14 -18 -15 -16 -6 6 9 36 18 36 5 0 4 -9 -3 -20z
m387 10 c3 -6 -1 -7 -9 -4 -18 7 -21 14 -7 14 6 0 13 -4 16 -10z m744 -39 c0
-14 -1 -14 -6 -1 -3 8 -13 24 -22 35 -16 20 -16 20 7 1 12 -11 22 -26 21 -35z
m-759 -1 c-5 -10 -7 -26 -4 -34 3 -9 1 -16 -6 -16 -6 0 -9 4 -5 9 3 6 -3 14
-12 20 -16 9 -16 10 -1 11 23 0 28 22 9 38 -14 11 -13 11 7 2 18 -9 20 -14 12
-30z m-733 8 c2 -18 0 -20 -7 -8 -12 18 -13 30 -2 30 4 0 9 -10 9 -22z m389
10 c4 -7 3 -8 -4 -4 -16 10 -15 -6 1 -24 10 -12 9 -12 -5 -1 -15 11 -18 11
-18 1 0 -8 -3 -11 -6 -8 -5 6 13 48 21 48 2 0 7 -5 11 -12z m720 0 c5 -7 3 -8
-6 -3 -10 6 -12 4 -7 -9 4 -10 3 -15 -3 -11 -6 3 -10 1 -10 -6 0 -7 -3 -10 -6
-7 -5 6 13 48 21 48 2 0 7 -5 11 -12z m362 -23 c13 -26 16 -27 27 -12 7 9 16
17 20 17 5 0 16 6 25 13 9 6 2 -1 -14 -18 -17 -16 -30 -34 -28 -40 1 -5 -9 2
-22 17 -13 15 -27 24 -30 20 -4 -3 -4 2 0 13 7 17 6 18 -8 7 -13 -10 -17 -10
-21 1 -10 27 36 11 51 -18z m-1133 5 c3 -5 1 -10 -4 -10 -6 0 -11 5 -11 10 0
6 2 10 4 10 3 0 8 -4 11 -10z m-309 -22 c4 -6 3 -8 -4 -4 -6 4 -12 -3 -14 -16
-2 -13 -9 -22 -16 -20 -6 1 -12 -5 -12 -13 0 -8 3 -14 8 -14 4 1 21 1 37 0
l30 -2 -29 -25 c-15 -14 -33 -23 -40 -21 -16 5 -15 83 2 80 6 -2 12 5 12 15 0
29 14 40 26 20z m287 -13 c-3 -9 -8 -14 -10 -11 -3 3 -2 9 2 15 9 16 15 13 8
-4z m32 -6 c-4 -5 -12 -9 -18 -8 -9 0 -8 2 1 6 6 2 9 10 6 15 -4 7 -2 8 5 4 6
-4 9 -12 6 -17z m40 1 c3 -6 -1 -7 -9 -4 -18 7 -21 14 -7 14 6 0 13 -4 16 -10z
m-445 -15 c0 -2 -10 -9 -22 -15 -22 -11 -22 -10 -4 4 21 17 26 19 26 11z m94
-4 c3 -5 -1 -11 -9 -14 -9 -4 -12 -1 -8 9 6 16 10 17 17 5z m261 -1 c3 -5 1
-10 -4 -10 -6 0 -11 5 -11 10 0 6 2 10 4 10 3 0 8 -4 11 -10z m720 0 c3 -5 1
-10 -4 -10 -6 0 -11 5 -11 10 0 6 2 10 4 10 3 0 8 -4 11 -10z m384 -30 c0 -10
-3 -8 -9 5 -12 27 -12 43 0 25 5 -8 9 -22 9 -30z m-735 -2 c4 6 4 18 0 25 -5
9 -4 9 6 0 11 -10 11 -15 0 -27 -16 -20 -30 -11 -29 17 1 20 2 20 8 -3 5 -17
9 -21 15 -12z m-704 -10 c0 -5 -9 -4 -20 2 -11 6 -20 12 -20 14 0 2 9 2 20 -1
11 -3 20 -9 20 -15z m357 -25 c4 5 1 12 -7 17 -8 6 -10 10 -5 10 6 0 3 5 -5
10 -10 6 -11 10 -3 10 7 0 19 -13 27 -28 13 -26 13 -28 -5 -29 -10 -1 -22 3
-25 9 -4 7 -10 5 -16 -3 -7 -10 -8 -9 -4 5 4 10 3 24 -1 30 -5 7 2 1 14 -13
12 -14 26 -22 30 -18z m306 20 c-4 -10 -2 -14 4 -10 5 3 10 -1 10 -9 0 -9 -4
-11 -10 -5 -5 5 -16 7 -23 4 -8 -3 -14 0 -14 7 0 6 4 9 9 6 5 -3 11 1 15 9 3
8 8 15 10 15 3 0 2 -7 -1 -17z m-673 -18 c7 -9 8 -15 2 -15 -5 0 -12 7 -16 15
-3 8 -4 15 -2 15 2 0 9 -7 16 -15z"/>
<path d="M325 171 c3 -5 -1 -11 -7 -14 -7 -2 -10 -8 -5 -13 4 -4 14 -1 23 8
14 14 14 16 -1 22 -9 3 -14 2 -10 -3z"/>
<path d="M999 2138 c-7 -23 -5 -37 4 -31 6 4 8 0 4 -10 -4 -12 4 -28 24 -50
17 -17 28 -26 24 -19 -3 6 0 12 7 12 10 0 10 2 -1 9 -8 5 -16 17 -17 26 -1 9
-6 20 -10 23 -4 4 -4 -1 -1 -10 3 -10 2 -20 -3 -23 -9 -6 -14 8 -11 29 1 4 -3
14 -9 20 -5 7 -7 16 -3 19 3 4 3 7 0 7 -4 0 -7 -1 -8 -2z"/>
<path d="M1713 2125 c0 -8 4 -12 9 -9 5 3 6 10 3 15 -9 13 -12 11 -12 -6z"/>
<path d="M1375 2120 c-4 -6 -10 -8 -15 -5 -5 3 -12 0 -16 -6 -5 -8 -3 -9 6 -4
10 6 12 4 7 -8 -3 -9 1 -21 11 -28 9 -8 14 -9 10 -5 -4 5 -2 16 5 24 9 13 9
14 0 8 -16 -9 -17 6 -1 22 7 7 9 12 6 12 -4 0 -10 -5 -13 -10z"/>
<path d="M270 2109 c0 -5 5 -7 10 -4 6 3 10 8 10 11 0 2 -4 4 -10 4 -5 0 -10
-5 -10 -11z"/>
<path d="M307 2109 c7 -7 15 -10 18 -7 3 3 -2 9 -12 12 -14 6 -15 5 -6 -5z"/>
<path d="M287 2087 c-3 -9 6 -25 23 -40 23 -21 29 -23 34 -11 3 9 1 12 -4 9
-13 -8 -13 8 0 23 7 9 7 9 -2 2 -9 -8 -17 -4 -29 11 -13 18 -17 19 -22 6z m24
-24 c13 -16 12 -17 -3 -4 -10 7 -18 15 -18 17 0 8 8 3 21 -13z"/>
<path d="M630 2091 c0 -5 13 -20 28 -33 16 -13 27 -28 25 -34 -2 -6 2 -16 10
-22 11 -9 14 -8 14 3 0 8 -5 15 -10 15 -5 0 -5 5 1 13 7 8 7 18 2 27 -7 10
-10 11 -10 3 0 -7 -5 -13 -11 -13 -5 0 -7 5 -4 10 4 6 1 17 -5 25 -14 17 -40
20 -40 6z m40 -23 c0 -6 -6 -5 -15 2 -8 7 -15 14 -15 16 0 2 7 1 15 -2 8 -4
15 -11 15 -16z"/>
<path d="M1760 2090 c-8 -5 -11 -13 -6 -17 5 -4 11 -2 13 5 3 6 10 9 15 6 7
-4 8 -2 4 4 -9 14 -7 14 -26 2z"/>
<path d="M1728 2079 c6 -9 10 -18 7 -21 -3 -3 3 -13 14 -22 10 -10 21 -13 24
-9 7 11 -1 22 -33 48 -15 12 -20 14 -12 4z m33 -36 c13 -16 12 -17 -3 -4 -10
7 -18 15 -18 17 0 8 8 3 21 -13z"/>
<path d="M1890 1936 c0 -2 7 -7 16 -10 8 -3 12 -2 9 4 -6 10 -25 14 -25 6z"/>
<path d="M1956 1837 c3 -10 9 -15 12 -12 3 3 0 11 -7 18 -10 9 -11 8 -5 -6z"/>
<path d="M1955 1800 c-3 -5 -3 -10 2 -11 4 0 0 -4 -10 -7 -17 -7 -17 -8 0 -28
10 -11 19 -26 21 -34 2 -8 8 -17 13 -18 5 -2 7 -8 3 -13 -3 -5 0 -8 8 -7 7 2
12 -5 12 -14 -1 -10 2 -16 6 -13 12 7 48 -47 43 -62 -3 -7 0 -13 6 -13 6 0 10
-4 8 -8 -1 -4 12 -24 28 -44 29 -35 31 -36 55 -22 14 9 17 13 8 10 -9 -3 -22
3 -30 11 -11 15 -10 16 7 10 18 -7 19 -6 3 6 -10 8 -14 18 -10 22 4 5 1 5 -6
1 -7 -4 -10 -12 -7 -17 4 -5 -1 -9 -9 -9 -18 0 -21 15 -6 25 18 11 -2 37 -24
31 -18 -4 -19 -3 -5 7 12 9 13 15 5 24 -26 28 -36 43 -29 43 4 0 -10 16 -32
35 -22 19 -35 34 -29 35 7 0 15 7 18 16 5 14 4 15 -7 5 -11 -9 -17 -7 -28 6
-12 15 -12 16 6 10 18 -7 19 -6 3 6 -10 8 -15 17 -11 20 3 4 4 7 0 7 -3 0 -9
-4 -12 -10z m16 -47 c13 -16 12 -17 -3 -4 -17 13 -22 21 -14 21 2 0 10 -8 17
-17z m62 -85 c-2 -4 1 -9 7 -13 5 -3 15 -16 21 -28 15 -28 12 -25 -47 48 -44
55 -45 57 -12 30 19 -16 33 -33 31 -37z m59 -93 c0 -5 -5 -10 -11 -11 -8 -2
-7 -1 0 3 8 4 7 8 -2 15 -11 8 -11 9 -1 6 8 -2 14 -8 14 -13z m36 -70 c-3 -3
-9 2 -12 12 -6 14 -5 15 5 6 7 -7 10 -15 7 -18z"/>
<path d="M2010 1729 c0 -5 5 -7 10 -4 6 3 10 8 10 11 0 2 -4 4 -10 4 -5 0 -10
-5 -10 -11z"/>
<path d="M2055 1701 c-3 -5 -2 -12 3 -15 5 -3 9 1 9 9 0 17 -3 19 -12 6z"/>
<path d="M2115 1590 c3 -5 8 -10 11 -10 2 0 4 5 4 10 0 6 -5 10 -11 10 -5 0
-7 -4 -4 -10z"/>
<path d="M2190 1460 c0 -5 5 -10 11 -10 5 0 7 5 4 10 -3 6 -8 10 -11 10 -2 0
-4 -4 -4 -10z"/>
<path d="M2236 1407 c3 -10 9 -15 12 -12 3 3 0 11 -7 18 -10 9 -11 8 -5 -6z"/>
<path d="M2230 1311 c0 -6 4 -13 10 -16 6 -3 7 1 4 9 -7 18 -14 21 -14 7z"/>
<path d="M2287 981 c-2 -10 0 -25 5 -34 7 -13 5 -15 -6 -11 -10 4 -14 0 -13
-15 1 -12 6 -21 12 -21 5 0 3 -5 -5 -10 -8 -5 -10 -10 -5 -10 6 0 17 5 25 10
8 5 10 10 4 10 -7 0 -14 7 -17 14 -4 10 -1 13 7 10 9 -4 13 6 13 36 0 41 -11
54 -20 21z"/>
<path d="M2143 832 c-1 -13 5 -17 25 -16 36 2 36 2 22 19 -17 21 -45 19 -47
-3z"/>
<path d="M2255 810 c-3 -6 1 -7 9 -4 18 7 21 14 7 14 -6 0 -13 -4 -16 -10z"/>
<path d="M2227 777 c-3 -8 0 -14 7 -14 7 0 13 6 13 14 0 7 -4 13 -8 13 -4 0
-9 -6 -12 -13z"/>
<path d="M2152 754 c-12 -8 -22 -19 -22 -25 0 -12 38 12 44 28 7 16 5 16 -22
-3z"/>
<path d="M2099 690 c-1 -5 -2 -13 -3 -17 -2 -9 -28 -53 -58 -95 -13 -20 -14
-26 -4 -22 8 3 17 1 21 -5 3 -6 11 -11 18 -11 6 0 2 7 -9 15 -18 14 -18 15 8
11 23 -4 26 -1 23 20 -2 20 1 23 16 19 11 -4 19 -2 19 5 0 6 -4 9 -9 6 -5 -3
-11 5 -13 19 -4 17 -1 25 9 25 8 0 12 -4 8 -9 -3 -5 -1 -12 4 -15 5 -4 12 -2
15 3 4 5 2 12 -4 16 -6 4 -8 10 -5 15 3 5 -4 14 -15 20 -13 7 -20 7 -21 0z
m-6 -71 c-6 -6 -9 -17 -7 -24 6 -16 -12 -29 -21 -16 -7 12 16 51 29 51 6 0 5
-5 -1 -11z"/>
<path d="M1901 334 c-1 -6 5 -17 12 -23 10 -8 14 -7 14 4 0 8 -4 12 -8 9 -4
-2 -10 2 -12 8 -4 8 -6 9 -6 2z"/>
<path d="M1846 298 c3 -5 10 -6 15 -3 13 9 11 12 -6 12 -8 0 -12 -4 -9 -9z"/>
<path d="M1895 270 c-3 -6 1 -7 9 -4 18 7 21 14 7 14 -6 0 -13 -4 -16 -10z"/>
<path d="M1060 190 c0 -5 -5 -9 -11 -7 -6 1 -13 -3 -16 -9 -2 -6 3 -11 12 -11
8 0 15 4 15 8 0 5 8 5 18 2 15 -6 15 -5 3 10 -15 19 -21 21 -21 7z"/>
<path d="M1395 167 c-28 -46 -29 -47 -8 -44 22 3 73 37 55 37 -6 0 -12 5 -12
11 0 5 6 7 13 3 8 -5 8 -2 -2 9 -19 23 -23 22 -46 -16z m26 -20 c-6 -6 -18
-12 -27 -13 -14 -2 -14 0 1 17 10 10 22 16 27 13 6 -4 6 -10 -1 -17z"/>
<path d="M1014 152 c3 -3 1 -11 -5 -18 -11 -13 1 -13 32 0 9 4 22 6 29 4 7 -2
15 4 17 12 4 13 3 13 -6 0 -6 -8 -11 -10 -11 -5 0 6 -14 11 -31 11 -16 1 -28
-1 -25 -4z"/>
<path d="M1435 130 c-3 -6 1 -7 9 -4 18 7 21 14 7 14 -6 0 -13 -4 -16 -10z"/>
<path d="M1646 132 c-2 -4 7 -9 22 -10 21 -1 24 0 12 8 -18 12 -27 12 -34 2z"/>
</g>
</svg>
